HIERARCHY
ROOT Hips
{
  OFFSET 3.13124 94.3669 -3.18751
  CHANNELS  6 Xposition Yposition Zposition Zrotation Xrotation Yrotation
  JOINT LeftUpLeg
  {
    OFFSET 8.64259 1.95398 -2.38835
    CHANNELS 3 Zrotation Xrotation Yrotation
    JOINT LeftLeg
    {
      OFFSET 43.7702 0 0
      CHANNELS 3 Zrotation Xrotation Yrotation
      JOINT LeftFoot
      {
        OFFSET 40.6238 0 0
        CHANNELS 3 Zrotation Xrotation Yrotation
        JOINT LeftToeBase
        {
          OFFSET 12.7242 0 0
          CHANNELS 3 Zrotation Xrotation Yrotation
          End Site
          {
            OFFSET 0 0 0
          }
        }
      }
    }
  }
  JOINT RightUpLeg
  {
    OFFSET -8.2249 1.95398 -2.59336
    CHANNELS 3 Zrotation Xrotation Yrotation
    JOINT RightLeg
    {
      OFFSET 43.5653 0 0
      CHANNELS 3 Zrotation Xrotation Yrotation
      JOINT RightFoot
      {
        OFFSET 40.6238 0 0
        CHANNELS 3 Zrotation Xrotation Yrotation
        JOINT RightToeBase
        {
          OFFSET 12.7242 0 0
          CHANNELS 3 Zrotation Xrotation Yrotation
          End Site
          {
            OFFSET 0 0 0
          }
        }
      }
    }
  }
  JOINT Spine
  {
    OFFSET 0.165834 0.87714 6.61349
    CHANNELS 3 Zrotation Xrotation Yrotation
    JOINT Spine1
    {
      OFFSET 7.38962 1.71661e-005 0
      CHANNELS 3 Zrotation Xrotation Yrotation
      JOINT Spine2
      {
        OFFSET 11.9445 1.14441e-005 0
        CHANNELS 3 Zrotation Xrotation Yrotation
        JOINT Spine3
        {
          OFFSET 14.7254 4.19617e-005 0
          CHANNELS 3 Zrotation Xrotation Yrotation
          JOINT Spine4
          {
            OFFSET 10.9679 0 0
            CHANNELS 3 Zrotation Xrotation Yrotation
            JOINT RightShoulder
            {
              OFFSET 2.46616 -1.6653 3.69651
              CHANNELS 3 Zrotation Xrotation Yrotation
              JOINT RightArm
              {
                OFFSET 13.0012 0 0
                CHANNELS 3 Zrotation Xrotation Yrotation
                JOINT RightForeArm
                {
                  OFFSET 28.7848 1.52588e-005 0
                  CHANNELS 3 Zrotation Xrotation Yrotation
                  JOINT RightHand
                  {
                    OFFSET 26.5688 1.52588e-005 0
                    CHANNELS 3 Zrotation Xrotation Yrotation
                    End Site
                    {
                      OFFSET 0 0 0
                    }
                  }
                }
              }
            }
            JOINT LeftShoulder
            {
              OFFSET 2.38034 -1.29275 -3.75231
              CHANNELS 3 Zrotation Xrotation Yrotation
              JOINT LeftArm
              {
                OFFSET 16.3182 6.10352e-005 0
                CHANNELS 3 Zrotation Xrotation Yrotation
                JOINT LeftForeArm
                {
                  OFFSET 27.0901 0 0
                  CHANNELS 3 Zrotation Xrotation Yrotation
                  JOINT LeftHand
                  {
                    OFFSET 24.5451 1.52588e-005 0
                    CHANNELS 3 Zrotation Xrotation Yrotation
                    End Site
                    {
                      OFFSET 0 0 0
                    }
                  }
                }
              }
            }
            JOINT Neck
            {
              OFFSET 5.0226 -0.0266342 0
              CHANNELS 3 Zrotation Xrotation Yrotation
              JOINT Head
              {
                OFFSET 6.69363 2.86102e-005 0
                CHANNELS 3 Zrotation Xrotation Yrotation
                End Site
                {
                  OFFSET 0 0 0
                }
              }
            }
          }
        }
      }
    }
  }
}
MOTION
Frames:	9
Frame Time:	0.0333333
-0.021797 -0.379940 -0.943225 75.710500 -77.174800 80.836300 -174.476000 13.224400 91.243700 -16.208700 17.974800 3.836440 61.824000 4.561530 2.605350 28.780800 0.000006 0.000010 179.026000 17.751400 85.955700 -28.092600 7.929840 0.361720 48.616500 6.266460 5.244420 28.780800 0.000013 0.000025 1.057000 7.341120 -91.582000 12.184400 1.367500 -2.398100 0.511856 1.260660 -2.455930 -22.017200 2.024890 -1.876470 -2.004510 2.024880 -1.876470 99.915400 -34.292100 -86.372500 34.492400 32.245000 -31.531400 -10.562400 0.911992 -10.132100 -5.379830 -0.320002 -0.016242 -76.812000 -28.078800 99.029000 -24.800500 -21.976700 0.639056 2.128460 21.842900 -8.328380 -0.052223 -0.069211 -3.273410 16.804400 -6.325700 -4.844010 -16.370000 -4.436070 -2.749170
-0.139495 -0.709868 -1.817560 75.450300 -76.198700 80.999600 -174.401000 13.968300 91.502500 -16.303200 19.022300 4.034290 61.470100 4.196690 2.393110 28.780800 0.000006 0.000010 179.181000 19.170000 86.152200 -29.594700 8.238320 0.362854 46.826800 6.970080 6.003850 28.780800 0.000013 0.000025 1.190720 7.450920 -91.524200 11.967100 1.649450 -2.367550 0.294913 1.543690 -2.437800 -22.237900 2.284630 -1.762530 -2.225300 2.284630 -1.762540 99.089500 -35.643400 -87.837600 38.250400 29.686500 -31.712100 -10.760600 0.892176 -9.897020 -5.379830 -0.320002 -0.016242 -76.641300 -28.921700 99.350700 -26.917300 -21.142200 0.618837 2.848800 24.502300 -8.492680 0.737837 -0.074797 -3.810180 18.133500 -7.312650 -5.289680 -17.552600 -5.028640 -3.809690
-0.311785 -0.983221 -2.574041 75.004500 -74.978400 80.989900 -174.334000 14.815500 91.810900 -16.323900 20.149300 4.220590 61.077700 3.742230 2.127910 28.780800 0.000006 0.000010 179.299000 20.482600 86.399400 -30.822400 8.483980 0.364551 45.227400 7.479270 6.622160 28.780800 0.000013 0.000025 1.327580 7.565140 -91.490700 11.739300 1.925550 -2.309340 0.067594 1.822070 -2.391820 -22.469700 2.530480 -1.623940 -2.457080 2.530490 -1.623940 98.169700 -37.137400 -89.402100 41.781900 27.030200 -32.000800 -10.717700 0.901668 -9.883820 -5.379830 -0.320002 -0.016242 -76.527800 -29.640100 99.555400 -29.340600 -20.395700 -0.097773 3.729610 25.995700 -8.253000 -0.785670 -0.094969 -4.668860 19.436300 -8.187120 -5.003200 -18.360400 -5.623370 -5.541230
-0.584751 -1.217478 -3.210408 74.672100 -73.513400 81.083200 -174.356000 15.782400 92.100200 -16.481700 21.433500 4.548880 60.668700 3.100700 1.746480 28.780800 0.000006 0.000010 179.385000 21.591300 86.655500 -31.802500 8.685890 0.367275 43.901500 7.859580 7.122140 28.780800 0.000013 0.000025 1.468000 7.664810 -91.439200 11.539400 2.214630 -2.185410 -0.131687 2.116340 -2.280740 -22.674700 2.768950 -1.418690 -2.662050 2.768950 -1.418690 97.369300 -39.300900 -90.602100 45.008800 24.490400 -32.840600 -9.986180 0.816743 -10.140300 -5.379830 -0.320002 -0.016242 -76.509800 -30.100900 99.576800 -31.669200 -19.281900 -0.983508 3.593740 24.915800 -8.238720 -0.408414 -0.090591 -4.369740 20.528800 -9.300000 -5.394410 -19.198100 -6.336260 -6.531960
-0.876044 -1.411767 -3.658821 73.884200 -71.797800 80.780100 -174.510000 17.051300 92.344800 -16.810400 22.592700 4.977620 60.350500 2.651010 1.478750 28.780800 0.000006 0.000010 179.457000 22.725800 86.985500 -32.630700 9.178520 0.393248 43.000500 8.232380 7.568310 28.780800 0.000013 0.000025 1.613650 7.761910 -91.444300 11.342500 2.479450 -2.114190 -0.327933 2.384020 -2.221260 -22.876000 3.000120 -1.270990 -2.863380 3.000110 -1.271010 96.690100 -40.826400 -91.604700 48.185900 21.455900 -33.650800 -9.721780 0.900611 -10.558800 -5.379830 -0.320002 -0.016242 -76.380600 -30.884500 99.803800 -33.979600 -17.932900 -2.424620 3.610170 25.164100 -8.244770 0.504936 -0.099457 -4.718390 22.044100 -10.099100 -4.416120 -20.567800 -6.930490 -8.650110
-1.200234 -1.582020 -3.975971 73.051600 -69.954100 80.612300 -174.668000 18.570500 92.699700 -17.486500 23.522800 5.441980 60.079200 2.395920 1.322020 28.780800 0.000006 0.000010 179.536000 23.678600 87.503200 -33.219300 9.810450 0.427852 42.334000 8.730970 8.093250 28.780800 0.000013 0.000025 1.743360 7.834610 -91.422900 11.196400 2.724910 -2.068530 -0.473487 2.631240 -2.186480 -23.026400 3.220480 -1.153510 -3.013790 3.220480 -1.153520 96.237800 -42.049300 -92.219700 51.724900 18.398200 -34.605400 -10.030900 1.035870 -11.250200 -5.379830 -0.320002 -0.016242 -76.227900 -31.365800 100.082000 -36.323100 -16.336800 -4.057790 3.402430 24.894800 -7.912390 0.958277 -0.139850 -6.052020 22.528400 -10.974300 -3.718020 -21.240700 -7.618480 -10.591000
-1.628004 -1.721233 -4.222459 72.403700 -67.928000 80.774200 -174.879000 20.189700 93.203100 -18.246100 24.322200 5.915020 60.003800 2.019310 1.097270 28.780800 0.000006 0.000010 179.577000 24.475900 88.178100 -33.685300 10.519300 0.478209 42.161000 9.081190 8.419850 28.780800 0.000013 0.000025 1.878020 7.906650 -91.496000 11.046100 2.920630 -2.049110 -0.623423 2.827640 -2.175690 -23.180300 3.401300 -1.075990 -3.167700 3.401310 -1.075990 95.775500 -42.285400 -92.977100 54.830600 14.706200 -35.153000 -9.633290 0.989884 -11.739900 -5.379830 -0.320002 -0.016242 -76.140200 -32.088300 100.223000 -38.408800 -14.725500 -5.646660 4.052620 26.047300 -8.693310 -0.718908 -0.100068 -5.114460 22.820500 -11.716200 -3.461030 -21.534200 -8.184200 -11.794900
-2.190391 -1.863245 -4.342173 72.012400 -65.917100 81.168800 -175.162000 21.907200 93.711300 -19.269800 24.987800 6.413620 59.923200 1.695420 0.902376 28.780800 0.000006 0.000010 179.611000 25.176800 88.890000 -34.125500 11.588000 0.554882 42.331100 9.557620 8.794230 28.780800 0.000013 0.000025 2.011530 8.009540 -91.556200 10.832900 3.113250 -2.000140 -0.836048 3.022230 -2.135260 -23.397300 3.570290 -0.971204 -3.384620 3.570290 -0.971197 95.493500 -41.734300 -93.545300 57.489200 10.390200 -35.663100 -9.144990 0.912589 -11.768100 -5.379830 -0.320002 -0.016242 -76.388300 -32.572400 99.733700 -40.292400 -13.068100 -7.193890 4.490170 27.038300 -8.864080 -2.113990 -0.097451 -7.357710 23.590400 -12.569800 -3.847880 -22.212300 -8.726200 -12.103600
-2.779673 -1.964417 -4.346029 71.708500 -64.123600 81.490300 -175.395000 23.646500 94.190200 -20.421500 25.200300 6.684900 59.926300 1.395120 0.716454 28.780800 0.000006 0.000010 179.642000 25.931100 89.560100 -34.792500 12.895000 0.640638 42.883200 9.811210 8.906970 28.780800 0.000013 0.000025 2.121160 8.139260 -91.518100 10.568100 3.310910 -1.847520 -1.100160 3.226400 -1.991530 -23.666600 3.712910 -0.765989 -3.653920 3.712910 -0.765986 94.931700 -40.911400 -94.653200 59.849400 6.566060 -36.202100 -8.388490 0.823017 -11.820600 -5.379830 -0.320002 -0.016242 -76.614200 -32.864700 99.298300 -41.955300 -11.572600 -9.022730 5.060380 28.157200 -8.995680 -3.342570 -0.051215 -9.053290 24.388500 -13.525200 -4.820990 -23.097300 -9.149000 -12.299300
